<svg xmlns="http://www.w3.org/2000/svg">
    <defs>
        <symbol id="search" viewBox="0 0 24 24" fill="currentColor">
            <path d="M23.707,22.293l-5.969-5.969a10.016,10.016,0,1,0-1.414,1.414l5.969,5.969a1,1,0,0,0,1.414-1.414ZM10,18a8,8,0,1,1,8-8A8.009,8.009,0,0,1,10,18Z"/>
        </symbol>
        <symbol id="plus" viewBox="0 0 24 24" fill="currentColor">
            <path d="M23,11H13V1a1,1,0,0,0-1-1h0a1,1,0,0,0-1,1V11H1a1,1,0,0,0-1,1H0a1,1,0,0,0,1,1H11V23a1,1,0,0,0,1,1h0a1,1,0,0,0,1-1V13H23a1,1,0,0,0,1-1h0A1,1,0,0,0,23,11Z"/>
        </symbol>
        <symbol id="save" viewBox="0 0 24 24" fill="currentColor">
            <path d="M12,10a4,4,0,1,0,4,4A4,4,0,0,0,12,10Zm0,6a2,2,0,1,1,2-2A2,2,0,0,1,12,16Z"/><path d="M22.536,4.122,19.878,1.464A4.966,4.966,0,0,0,16.343,0H5A5.006,5.006,0,0,0,0,5V19a5.006,5.006,0,0,0,5,5H19a5.006,5.006,0,0,0,5-5V7.657A4.966,4.966,0,0,0,22.536,4.122ZM17,2.08V3a3,3,0,0,1-3,3H10A3,3,0,0,1,7,3V2h9.343A2.953,2.953,0,0,1,17,2.08ZM22,19a3,3,0,0,1-3,3H5a3,3,0,0,1-3-3V5A3,3,0,0,1,5,2V3a5.006,5.006,0,0,0,5,5h4a4.991,4.991,0,0,0,4.962-4.624l2.16,2.16A3.02,3.02,0,0,1,22,7.657Z"/>
        </symbol>
        <symbol id="trash" viewBox="0 0 24 24" fill="currentColor">
            <path d="M21,4H17.9A5.009,5.009,0,0,0,13,0H11A5.009,5.009,0,0,0,6.1,4H3A1,1,0,0,0,3,6H4V19a5.006,5.006,0,0,0,5,5h6a5.006,5.006,0,0,0,5-5V6h1a1,1,0,0,0,0-2ZM11,2h2a3.006,3.006,0,0,1,2.829,2H8.171A3.006,3.006,0,0,1,11,2Zm7,17a3,3,0,0,1-3,3H9a3,3,0,0,1-3-3V6H18Z"/><path d="M10,18a1,1,0,0,0,1-1V11a1,1,0,0,0-2,0v6A1,1,0,0,0,10,18Z"/><path d="M14,18a1,1,0,0,0,1-1V11a1,1,0,0,0-2,0v6A1,1,0,0,0,14,18Z"/>
        </symbol>
    </defs>
</svg>
